# xmcd
#
# Track frame offsets:
#	150
#	16116
#	37260
#	54921
#	71192
#	90532
#	108172
#	124169
#	142571
#	158944
#	176448
#	211893
#
# Disc length: 3072 seconds
#
# Revision: 1
# Processed by: cddbd v1.4b41PL2 Copyright (c) Steve Scherf et al.
# Submitted via: audiograbber 1.80
#
DISCID=980bfe0c
DTITLE=Кристина Орбакайте - Май
DYEAR=1900
DGENRE=
TTITLE0=Май
TTITLE1=Бесприютная Душа
TTITLE2=Десять Вечеров
TTITLE3=Не Бей Любовь...
TTITLE4=Обещание
TTITLE5=Никогда
TTITLE6=Не Я
TTITLE7=Эпизод
TTITLE8=Сделай Так
TTITLE9=Гурзуф
TTITLE10=Без Тебя (remix)
TTITLE11=Диск с данными [CD-ROM)
EXTD=
EXTT0=
EXTT1=
EXTT2=
EXTT3=
EXTT4=
EXTT5=
EXTT6=
EXTT7=
EXTT8=
EXTT9=
EXTT10=
EXTT11=
PLAYORDER=
